HIERARCHY
ROOT Hips
{
	OFFSET 0.000000 0.000000 0.000000
	CHANNELS 6 Xposition Yposition Zposition Zrotation Xrotation Yrotation
	JOINT Spine
	{
		OFFSET 0.000000 0.059888 0.006665
		CHANNELS 6 Xposition Yposition Zposition Zrotation Xrotation Yrotation
		JOINT Chest
		{
			OFFSET 0.000000 0.125681 -0.015911
			CHANNELS 6 Xposition Yposition Zposition Zrotation Xrotation Yrotation
			JOINT UpperChest
			{
				OFFSET 0.000000 0.122768 -0.001652
				CHANNELS 6 Xposition Yposition Zposition Zrotation Xrotation Yrotation
				JOINT Neck
				{
					OFFSET 0.000000 0.155865 0.008735
					CHANNELS 6 Xposition Yposition Zposition Zrotation Xrotation Yrotation
					JOINT Head
					{
						OFFSET 0.000000 0.095969 -0.000410
						CHANNELS 6 Xposition Yposition Zposition Zrotation Xrotation Yrotation
						JOINT LeftEye
						{
							OFFSET 0.015267 0.059218 0.021494
							CHANNELS 6 Xposition Yposition Zposition Zrotation Xrotation Yrotation
							End Site
							{
								OFFSET 0.015267 0.059218 0.021494
							}
						}
						JOINT RightEye
						{
							OFFSET -0.015267 0.059218 0.021494
							CHANNELS 6 Xposition Yposition Zposition Zrotation Xrotation Yrotation
							End Site
							{
								OFFSET -0.015267 0.059218 0.021494
							}
						}
					}
				}
				JOINT LeftShoulder
				{
					OFFSET 0.025383 0.124268 0.007699
					CHANNELS 6 Xposition Yposition Zposition Zrotation Xrotation Yrotation
					JOINT LeftUpperArm
					{
						OFFSET 0.136062 0.000000 0.000000
						CHANNELS 6 Xposition Yposition Zposition Zrotation Xrotation Yrotation
						JOINT LeftLowerArm
						{
							OFFSET 0.225446 0.000000 0.000000
							CHANNELS 6 Xposition Yposition Zposition Zrotation Xrotation Yrotation
							JOINT LeftHand
							{
								OFFSET 0.256325 0.000003 0.000015
								CHANNELS 6 Xposition Yposition Zposition Zrotation Xrotation Yrotation
								JOINT LeftIndexProximal
								{
									OFFSET 0.074229 0.008101 0.022282
									CHANNELS 6 Xposition Yposition Zposition Zrotation Xrotation Yrotation
									JOINT LeftIndexIntermediate
									{
										OFFSET 0.037712 0.000000 -0.000001
										CHANNELS 6 Xposition Yposition Zposition Zrotation Xrotation Yrotation
										JOINT LeftIndexDistal
										{
											OFFSET 0.023218 0.000022 0.000021
											CHANNELS 6 Xposition Yposition Zposition Zrotation Xrotation Yrotation
											End Site
											{
												OFFSET 0.023218 0.000022 0.000021
											}
										}
									}
								}
								JOINT LeftLittleProximal
								{
									OFFSET 0.069261 0.008101 -0.033073
									CHANNELS 6 Xposition Yposition Zposition Zrotation Xrotation Yrotation
									JOINT LeftLittleIntermediate
									{
										OFFSET 0.035643 0.000000 0.000000
										CHANNELS 6 Xposition Yposition Zposition Zrotation Xrotation Yrotation
										JOINT LeftLittleDistal
										{
											OFFSET 0.020542 0.000000 0.000000
											CHANNELS 6 Xposition Yposition Zposition Zrotation Xrotation Yrotation
											End Site
											{
												OFFSET 0.020542 0.000000 0.000000
											}
										}
									}
								}
								JOINT LeftMiddleProximal
								{
									OFFSET 0.075240 0.008101 0.002320
									CHANNELS 6 Xposition Yposition Zposition Zrotation Xrotation Yrotation
									JOINT LeftMiddleIntermediate
									{
										OFFSET 0.042007 0.000000 0.000000
										CHANNELS 6 Xposition Yposition Zposition Zrotation Xrotation Yrotation
										JOINT LeftMiddleDistal
										{
											OFFSET 0.025915 0.000000 0.000000
											CHANNELS 6 Xposition Yposition Zposition Zrotation Xrotation Yrotation
											End Site
											{
												OFFSET 0.025915 0.000000 0.000000
											}
										}
									}
								}
								JOINT LeftRingProximal
								{
									OFFSET 0.074383 0.008101 -0.015403
									CHANNELS 6 Xposition Yposition Zposition Zrotation Xrotation Yrotation
									JOINT LeftRingIntermediate
									{
										OFFSET 0.038967 0.000000 0.000000
										CHANNELS 6 Xposition Yposition Zposition Zrotation Xrotation Yrotation
										JOINT LeftRingDistal
										{
											OFFSET 0.022488 0.000000 0.000000
											CHANNELS 6 Xposition Yposition Zposition Zrotation Xrotation Yrotation
											End Site
											{
												OFFSET 0.022488 0.000000 0.000000
											}
										}
									}
								}
								JOINT LeftThumbProximal
								{
									OFFSET 0.003995 -0.010985 0.018096
									CHANNELS 6 Xposition Yposition Zposition Zrotation Xrotation Yrotation
									JOINT LeftThumbIntermediate
									{
										OFFSET 0.052819 -0.000008 -0.000074
										CHANNELS 6 Xposition Yposition Zposition Zrotation Xrotation Yrotation
										JOINT LeftThumbDistal
										{
											OFFSET 0.032489 0.000042 -0.000035
											CHANNELS 6 Xposition Yposition Zposition Zrotation Xrotation Yrotation
											End Site
											{
												OFFSET 0.032489 0.000042 -0.000035
											}
										}
									}
								}
							}
						}
					}
				}
				JOINT RightShoulder
				{
					OFFSET -0.025383 0.124268 0.007699
					CHANNELS 6 Xposition Yposition Zposition Zrotation Xrotation Yrotation
					JOINT RightUpperArm
					{
						OFFSET -0.136062 0.000000 0.000000
						CHANNELS 6 Xposition Yposition Zposition Zrotation Xrotation Yrotation
						JOINT RightLowerArm
						{
							OFFSET -0.225446 0.000000 0.000000
							CHANNELS 6 Xposition Yposition Zposition Zrotation Xrotation Yrotation
							JOINT RightHand
							{
								OFFSET -0.256325 0.000003 0.000015
								CHANNELS 6 Xposition Yposition Zposition Zrotation Xrotation Yrotation
								JOINT RightIndexProximal
								{
									OFFSET -0.074229 0.008101 0.022282
									CHANNELS 6 Xposition Yposition Zposition Zrotation Xrotation Yrotation
									JOINT RightIndexIntermediate
									{
										OFFSET -0.037712 0.000000 -0.000001
										CHANNELS 6 Xposition Yposition Zposition Zrotation Xrotation Yrotation
										JOINT RightIndexDistal
										{
											OFFSET -0.023218 0.000022 0.000021
											CHANNELS 6 Xposition Yposition Zposition Zrotation Xrotation Yrotation
											End Site
											{
												OFFSET -0.023218 0.000022 0.000021
											}
										}
									}
								}
								JOINT RightLittleProximal
								{
									OFFSET -0.069261 0.008101 -0.033073
									CHANNELS 6 Xposition Yposition Zposition Zrotation Xrotation Yrotation
									JOINT RightLittleIntermediate
									{
										OFFSET -0.035643 0.000000 0.000000
										CHANNELS 6 Xposition Yposition Zposition Zrotation Xrotation Yrotation
										JOINT RightLittleDistal
										{
											OFFSET -0.020542 0.000000 0.000000
											CHANNELS 6 Xposition Yposition Zposition Zrotation Xrotation Yrotation
											End Site
											{
												OFFSET -0.020542 0.000000 0.000000
											}
										}
									}
								}
								JOINT RightMiddleProximal
								{
									OFFSET -0.075240 0.008101 0.002320
									CHANNELS 6 Xposition Yposition Zposition Zrotation Xrotation Yrotation
									JOINT RightMiddleIntermediate
									{
										OFFSET -0.042007 0.000000 0.000000
										CHANNELS 6 Xposition Yposition Zposition Zrotation Xrotation Yrotation
										JOINT RightMiddleDistal
										{
											OFFSET -0.025915 0.000000 0.000000
											CHANNELS 6 Xposition Yposition Zposition Zrotation Xrotation Yrotation
											End Site
											{
												OFFSET -0.025915 0.000000 0.000000
											}
										}
									}
								}
								JOINT RightRingProximal
								{
									OFFSET -0.074383 0.008101 -0.015403
									CHANNELS 6 Xposition Yposition Zposition Zrotation Xrotation Yrotation
									JOINT RightRingIntermediate
									{
										OFFSET -0.038967 0.000000 0.000000
										CHANNELS 6 Xposition Yposition Zposition Zrotation Xrotation Yrotation
										JOINT RightRingDistal
										{
											OFFSET -0.022488 0.000000 0.000000
											CHANNELS 6 Xposition Yposition Zposition Zrotation Xrotation Yrotation
											End Site
											{
												OFFSET -0.022488 0.000000 0.000000
											}
										}
									}
								}
								JOINT RightThumbProximal
								{
									OFFSET -0.003995 -0.010985 0.018096
									CHANNELS 6 Xposition Yposition Zposition Zrotation Xrotation Yrotation
									JOINT RightThumbIntermediate
									{
										OFFSET -0.052819 -0.000008 -0.000074
										CHANNELS 6 Xposition Yposition Zposition Zrotation Xrotation Yrotation
										JOINT RightThumbDistal
										{
											OFFSET -0.032489 0.000042 -0.000035
											CHANNELS 6 Xposition Yposition Zposition Zrotation Xrotation Yrotation
											End Site
											{
												OFFSET -0.032489 0.000042 -0.000035
											}
										}
									}
								}
							}
						}
					}
				}
			}
		}
	}
	JOINT LeftUpperLeg
	{
		OFFSET 0.087143 -0.045243 0.001548
		CHANNELS 6 Xposition Yposition Zposition Zrotation Xrotation Yrotation
		JOINT LeftLowerLeg
		{
			OFFSET 0.000000 -0.394432 -0.000001
			CHANNELS 6 Xposition Yposition Zposition Zrotation Xrotation Yrotation
			JOINT LeftFoot
			{
				OFFSET 0.000000 -0.466446 0.003058
				CHANNELS 6 Xposition Yposition Zposition Zrotation Xrotation Yrotation
				JOINT LeftToes
				{
					OFFSET 0.000000 -0.079218 0.140851
					CHANNELS 6 Xposition Yposition Zposition Zrotation Xrotation Yrotation
					End Site
					{
						OFFSET 0.000000 -0.079218 0.140851
					}
				}
			}
		}
	}
	JOINT RightUpperLeg
	{
		OFFSET -0.087143 -0.045243 0.001548
		CHANNELS 6 Xposition Yposition Zposition Zrotation Xrotation Yrotation
		JOINT RightLowerLeg
		{
			OFFSET 0.000000 -0.394432 -0.000001
			CHANNELS 6 Xposition Yposition Zposition Zrotation Xrotation Yrotation
			JOINT RightFoot
			{
				OFFSET 0.000000 -0.466446 0.003058
				CHANNELS 6 Xposition Yposition Zposition Zrotation Xrotation Yrotation
				JOINT RightToes
				{
					OFFSET 0.000000 -0.079218 0.140851
					CHANNELS 6 Xposition Yposition Zposition Zrotation Xrotation Yrotation
					End Site
					{
						OFFSET 0.000000 -0.079218 0.140851
					}
				}
			}
		}
	}
}
MOTION
Frames: 4
Frame Time: 0.041667
-0.000961 1.031558 0.004446 -2.132568 12.765941 13.015188 -0.000000 0.059888 0.006665 -1.387367 6.169597 0.533667 -0.000000 0.125681 -0.015911 -1.263318 -0.804381 -0.591229 0.000000 0.122768 -0.001652 -0.000114 -12.397665 0.000038 -0.000000 0.155865 0.008735 -1.033329 16.294743 0.426962 0.000000 0.095969 -0.000410 0.815618 3.626640 1.934632 0.015267 0.059218 0.021494 -1.701130 3.586990 21.747932 -0.015267 0.059218 0.021494 1.701130 3.586997 -21.747918 0.025383 0.124268 0.007699 16.533263 -2.000049 14.301166 0.136062 -0.000000 -0.000000 -96.171994 15.015126 11.103341 0.225446 -0.000000 0.000000 -7.918091 2.508184 -22.488738 0.256325 0.000003 0.000015 -0.414810 41.283897 0.219364 0.074229 0.008101 0.022282 -0.012968 0.667620 1.112107 0.037712 0.000000 -0.000001 -1.679194 1.282864 0.674522 0.023218 0.000022 0.000021 -0.334984 1.286452 -0.710999 0.069261 0.008101 -0.033073 0.000004 -0.000042 0.000001 0.035643 -0.000000 -0.000000 0.000003 -0.000003 0.000000 0.020542 -0.000000 -0.000000 0.890203 -0.008568 -1.101172 0.075240 0.008101 0.002320 -0.000001 -0.000008 -0.000005 0.042007 -0.000000 -0.000000 0.000002 0.000038 -0.000014 0.025915 0.000000 0.000000 0.000002 0.000040 -0.000012 0.074383 0.008101 -0.015403 -0.000000 0.000013 0.000004 0.038967 0.000000 0.000000 0.000003 -0.000001 0.000000 0.022488 0.000000 -0.000000 -0.712572 -0.008161 1.310729 0.003995 -0.010985 0.018096 86.199487 49.487521 -89.646581 0.052819 -0.000008 -0.000074 -2.573036 -0.739914 0.463017 0.032489 0.000042 -0.000035 4.590285 -0.705067 -0.717111 -0.025383 0.124268 0.007699 9.495379 -1.980058 -14.020742 -0.136062 0.000000 -0.000000 65.172033 28.361223 6.379254 -0.225446 0.000000 0.000000 6.236180 10.044080 16.985053 -0.256325 0.000003 0.000015 4.498683 31.113291 3.561037 -0.074229 0.008101 0.022282 0.012968 0.667618 -1.112105 -0.037712 0.000000 -0.000001 1.679195 1.282862 -0.674522 -0.023218 0.000022 0.000021 0.334984 1.286454 0.710999 -0.069261 0.008101 -0.033073 -0.000005 -0.000040 -0.000001 -0.035643 -0.000000 0.000000 -0.000003 -0.000001 -0.000000 -0.020542 0.000000 -0.000000 -0.890204 -0.008565 1.101172 -0.075240 0.008101 0.002320 0.000000 -0.000007 0.000006 -0.042007 -0.000000 -0.000000 -0.000004 0.000038 0.000014 -0.025915 -0.000000 0.000000 -0.000003 0.000037 0.000012 -0.074383 0.008101 -0.015403 0.000000 0.000014 -0.000003 -0.038967 0.000000 -0.000000 -0.000003 0.000002 0.000000 -0.022488 0.000000 -0.000000 0.712572 -0.008158 -1.310730 -0.003995 -0.010985 0.018096 -86.199433 49.487521 89.646581 -0.052819 -0.000008 -0.000074 2.573042 -0.739910 -0.463020 -0.032489 0.000042 -0.000035 -4.590282 -0.705066 0.717110 0.087143 -0.045243 0.001548 -5.426683 -7.984773 -0.756052 -0.000000 -0.394432 -0.000001 4.492069 20.466016 -5.074612 -0.000000 -0.466446 0.003058 4.674025 -14.484618 18.542413 0.000000 -0.079218 0.140851 0.000001 0.248283 0.000002 -0.087143 -0.045243 0.001548 -9.788853 -12.195828 -2.087324 -0.000000 -0.394432 -0.000001 8.801321 24.766835 -18.823607 0.000000 -0.466446 0.003058 7.736824 -17.017140 25.383671 -0.000000 -0.079218 0.140851 -0.000001 0.248287 -0.000001 
-0.001611 1.031231 0.004765 -2.172150 12.610217 12.822423 -0.000000 0.059888 0.006665 -1.339394 6.314763 0.497271 0.000000 0.125681 -0.015911 -1.220775 -0.662993 -0.579890 -0.000000 0.122768 -0.001652 -0.000114 -12.397662 0.000039 0.000000 0.155865 0.008735 -1.085872 16.258869 0.425618 -0.000000 0.095969 -0.000410 0.875200 3.649431 2.203073 0.015267 0.059218 0.021494 -1.701130 3.586994 21.747932 -0.015267 0.059218 0.021494 1.701133 3.587004 -21.747922 0.025383 0.124268 0.007699 16.758093 -2.081537 14.351715 0.136062 -0.000000 -0.000000 -96.095400 14.437642 11.536280 0.225446 -0.000000 0.000000 -8.048782 3.136028 -22.916664 0.256325 0.000003 0.000015 -0.190764 40.877559 0.016415 0.074229 0.008101 0.022282 -0.012967 0.667616 1.112106 0.037712 0.000000 -0.000001 -1.679194 1.282864 0.674522 0.023218 0.000022 0.000021 -0.334984 1.286452 -0.710999 0.069261 0.008101 -0.033073 0.000004 -0.000041 0.000000 0.035643 -0.000000 -0.000000 0.000003 -0.000004 -0.000001 0.020542 -0.000000 -0.000000 0.890204 -0.008568 -1.101172 0.075240 0.008101 0.002320 -0.000000 -0.000010 -0.000006 0.042007 0.000000 -0.000000 0.000002 0.000034 -0.000013 0.025915 -0.000000 0.000000 0.000003 0.000036 -0.000013 0.074383 0.008101 -0.015403 0.000000 0.000013 0.000003 0.038967 0.000000 -0.000000 0.000003 -0.000001 -0.000001 0.022488 0.000000 -0.000000 -0.712572 -0.008165 1.310730 0.003995 -0.010985 0.018096 86.199494 49.487524 -89.646574 0.052819 -0.000008 -0.000074 -2.573039 -0.739914 0.463025 0.032489 0.000042 -0.000035 4.590285 -0.705070 -0.717111 -0.025383 0.124268 0.007699 9.657688 -2.062371 -14.041964 -0.136062 0.000000 -0.000000 65.130437 28.581601 6.552927 -0.225446 0.000000 0.000000 6.279062 9.994474 16.923126 -0.256325 0.000003 0.000015 4.621563 30.974382 3.464864 -0.074229 0.008101 0.022282 0.012968 0.667622 -1.112105 -0.037712 0.000000 -0.000001 1.679195 1.282861 -0.674521 -0.023218 0.000022 0.000021 0.334983 1.286454 0.710999 -0.069261 0.008101 -0.033073 -0.000006 -0.000039 -0.000000 -0.035643 -0.000000 -0.000000 -0.000003 -0.000001 -0.000000 -0.020542 -0.000000 0.000000 -0.890203 -0.008563 1.101171 -0.075240 0.008101 0.002320 -0.000001 -0.000006 0.000007 -0.042007 -0.000000 0.000000 -0.000003 0.000034 0.000013 -0.025915 -0.000000 -0.000000 -0.000004 0.000037 0.000012 -0.074383 0.008101 -0.015403 -0.000001 0.000017 -0.000003 -0.038967 -0.000000 -0.000000 -0.000003 -0.000001 0.000001 -0.022488 0.000000 -0.000000 0.712571 -0.008161 -1.310730 -0.003995 -0.010985 0.018096 -86.199433 49.487514 89.646588 -0.052819 -0.000008 -0.000074 2.573034 -0.739909 -0.463020 -0.032489 0.000042 -0.000035 -4.590282 -0.705066 0.717109 0.087143 -0.045243 0.001548 -5.340188 -7.965008 -0.742102 -0.000000 -0.394432 -0.000001 4.636858 20.759752 -6.711800 0.000000 -0.466446 0.003058 4.985705 -14.436523 19.753185 0.000000 -0.079218 0.140851 -0.000000 0.248285 -0.000001 -0.087143 -0.045243 0.001548 -9.495296 -12.019688 -1.994834 -0.000000 -0.394432 -0.000001 8.588253 25.109447 -18.272723 -0.000000 -0.466446 0.003058 7.652954 -17.119473 25.008610 -0.000000 -0.079218 0.140851 -0.000001 0.248280 0.000002 
-0.002056 1.030811 0.004165 -2.200216 12.492323 12.689756 0.000000 0.059888 0.006665 -1.281408 6.472436 0.513452 -0.000000 0.125681 -0.015911 -1.158996 -0.505162 -0.569828 -0.000000 0.122768 -0.001652 -0.000113 -12.397665 0.000039 0.000000 0.155865 0.008735 -1.038945 16.366977 0.421891 -0.000000 0.095969 -0.000410 1.097562 3.765016 2.639000 0.015267 0.059218 0.021494 -1.701131 3.586987 21.747934 -0.015267 0.059218 0.021494 1.701129 3.587001 -21.747923 0.025383 0.124268 0.007699 16.985219 -2.215561 14.584761 0.136062 -0.000000 -0.000000 -96.171126 14.159594 11.910714 0.225446 -0.000000 0.000000 -8.027028 3.429869 -23.099754 0.256325 0.000003 0.000015 0.215961 40.634192 -0.614877 0.074229 0.008101 0.022282 -0.012966 0.667621 1.112106 0.037712 -0.000000 -0.000001 -1.679195 1.282857 0.674523 0.023218 0.000022 0.000021 -0.334984 1.286453 -0.710999 0.069261 0.008101 -0.033073 0.000007 -0.000042 0.000001 0.035643 -0.000000 -0.000000 0.000003 -0.000002 -0.000000 0.020542 -0.000000 0.000000 0.890204 -0.008564 -1.101171 0.075240 0.008101 0.002320 0.000001 -0.000007 -0.000006 0.042007 -0.000000 -0.000000 0.000004 0.000036 -0.000013 0.025915 -0.000000 -0.000000 0.000003 0.000036 -0.000013 0.074383 0.008101 -0.015403 0.000001 0.000015 0.000004 0.038967 0.000000 -0.000000 0.000003 -0.000003 -0.000001 0.022488 0.000000 -0.000000 -0.712571 -0.008160 1.310730 0.003995 -0.010985 0.018096 86.199480 49.487517 -89.646574 0.052819 -0.000008 -0.000074 -2.573033 -0.739912 0.463021 0.032489 0.000042 -0.000035 4.590283 -0.705066 -0.717110 -0.025383 0.124268 0.007699 9.759335 -2.197996 -14.278124 -0.136062 -0.000000 -0.000000 64.885117 29.019828 6.922863 -0.225446 -0.000000 -0.000000 6.394921 10.066102 16.962577 -0.256325 0.000003 0.000015 4.274530 31.109422 3.590295 -0.074229 0.008101 0.022282 0.012969 0.667617 -1.112105 -0.037712 0.000000 -0.000001 1.679196 1.282861 -0.674522 -0.023218 0.000022 0.000021 0.334982 1.286454 0.710999 -0.069261 0.008101 -0.033073 -0.000004 -0.000043 -0.000000 -0.035643 -0.000000 -0.000000 -0.000002 0.000001 -0.000000 -0.020542 -0.000000 -0.000000 -0.890204 -0.008565 1.101173 -0.075240 0.008101 0.002320 0.000001 -0.000007 0.000008 -0.042007 -0.000000 -0.000000 -0.000002 0.000036 0.000014 -0.025915 0.000000 0.000000 -0.000003 0.000039 0.000013 -0.074383 0.008101 -0.015403 0.000001 0.000014 -0.000003 -0.038967 0.000000 -0.000000 -0.000003 0.000001 0.000001 -0.022488 0.000000 -0.000000 0.712571 -0.008160 -1.310729 -0.003995 -0.010985 0.018096 -86.199439 49.487514 89.646588 -0.052819 -0.000008 -0.000074 2.573037 -0.739911 -0.463024 -0.032489 0.000042 -0.000035 -4.590281 -0.705064 0.717111 0.087143 -0.045243 0.001548 -5.242232 -8.191439 -0.748981 -0.000000 -0.394432 -0.000001 4.636582 21.395971 -8.322561 0.000000 -0.466446 0.003058 5.546106 -14.468600 21.743173 0.000000 -0.079218 0.140851 -0.000001 0.248290 -0.000002 -0.087143 -0.045243 0.001548 -9.303052 -11.867780 -1.929435 -0.000000 -0.394432 -0.000001 8.386006 25.086709 -17.848941 -0.000000 -0.466446 0.003058 7.517733 -16.958619 24.818993 0.000000 -0.079218 0.140851 -0.000000 0.248285 0.000000 
-0.002307 1.030662 0.003084 -2.279136 12.444525 12.663733 -0.000000 0.059888 0.006665 -1.170396 6.669372 0.646484 0.000000 0.125681 -0.015911 -1.026008 -0.303468 -0.547480 0.000000 0.122768 -0.001652 -0.000114 -12.397666 0.000035 -0.000000 0.155865 0.008735 -0.796226 16.553385 0.408538 0.000000 0.095969 -0.000410 1.609938 4.210189 3.352278 0.015267 0.059218 0.021494 -1.701132 3.586992 21.747935 -0.015267 0.059218 0.021494 1.701131 3.587000 -21.747922 0.025383 0.124268 0.007699 17.228146 -2.398606 14.878816 0.136062 -0.000000 -0.000000 -96.372043 14.105772 12.194690 0.225446 0.000000 0.000000 -8.056309 3.616276 -23.311629 0.256325 0.000003 0.000015 0.389659 40.382810 -1.048309 0.074229 0.008101 0.022282 -0.012967 0.667619 1.112105 0.037712 0.000000 -0.000001 -1.679195 1.282859 0.674523 0.023218 0.000022 0.000021 -0.334985 1.286452 -0.710998 0.069261 0.008101 -0.033073 0.000005 -0.000042 0.000001 0.035643 -0.000000 0.000000 0.000003 0.000002 -0.000001 0.020542 -0.000000 0.000000 0.890204 -0.008562 -1.101172 0.075240 0.008101 0.002320 -0.000001 -0.000007 -0.000006 0.042007 -0.000000 -0.000000 0.000003 0.000040 -0.000014 0.025915 -0.000000 0.000000 0.000003 0.000039 -0.000013 0.074383 0.008101 -0.015403 -0.000001 0.000015 0.000004 0.038967 0.000000 -0.000000 0.000003 -0.000003 -0.000001 0.022488 0.000000 -0.000000 -0.712572 -0.008159 1.310729 0.003995 -0.010985 0.018096 86.199487 49.487521 -89.646581 0.052819 -0.000008 -0.000074 -2.573038 -0.739914 0.463019 0.032489 0.000042 -0.000035 4.590286 -0.705067 -0.717111 -0.025383 0.124268 0.007699 9.938097 -2.380649 -14.723079 -0.136062 0.000000 -0.000000 64.158774 29.544356 7.476450 -0.225446 0.000000 -0.000000 6.550352 10.137001 17.216754 -0.256325 0.000003 0.000015 3.797172 31.540072 3.961085 -0.074229 0.008101 0.022282 0.012969 0.667617 -1.112104 -0.037712 0.000000 -0.000001 1.679195 1.282860 -0.674521 -0.023218 0.000022 0.000021 0.334983 1.286454 0.710999 -0.069261 0.008101 -0.033073 -0.000004 -0.000045 -0.000001 -0.035643 0.000000 -0.000000 -0.000002 0.000002 -0.000000 -0.020542 -0.000000 -0.000000 -0.890204 -0.008561 1.101171 -0.075240 0.008101 0.002320 0.000000 -0.000011 0.000007 -0.042007 -0.000000 -0.000000 -0.000004 0.000037 0.000013 -0.025915 -0.000000 -0.000000 -0.000004 0.000036 0.000014 -0.074383 0.008101 -0.015403 0.000000 0.000011 -0.000003 -0.038967 -0.000000 0.000000 -0.000004 0.000003 -0.000000 -0.022488 0.000000 -0.000000 0.712572 -0.008156 -1.310728 -0.003995 -0.010985 0.018096 -86.199433 49.487524 89.646581 -0.052819 -0.000008 -0.000074 2.573037 -0.739910 -0.463023 -0.032489 0.000042 -0.000035 -4.590279 -0.705068 0.717110 0.087143 -0.045243 0.001548 -5.129530 -8.605528 -0.769560 -0.000000 -0.394432 -0.000001 4.623288 22.147042 -9.200285 -0.000000 -0.466446 0.003058 5.941097 -14.550261 23.026362 0.000000 -0.079218 0.140851 -0.000000 0.248288 -0.000000 -0.087143 -0.045243 0.001548 -9.070139 -11.946747 -1.892656 0.000000 -0.394432 -0.000001 8.122561 25.197403 -17.258355 0.000000 -0.466446 0.003058 7.277827 -16.791354 24.321742 0.000000 -0.079218 0.140851 -0.000001 0.248280 -0.000000 
